<?xml version="1.0" encoding="utf-8"?>
<!-- Generator: Adobe Illustrator 23.0.6, SVG Export Plug-In . SVG Version: 6.00 Build 0)  -->
<svg version="1.1" id="Layer_1" xmlns="http://www.w3.org/2000/svg" xmlns:xlink="http://www.w3.org/1999/xlink" x="0px" y="0px"
	 viewBox="0 0 550 520" style="enable-background:new 0 0 550 520;" xml:space="preserve">
<style type="text/css">
	.st0{fill:#EE2155;}
	.st1{fill:#F7F7F7;}
</style>
<path class="st0" d="M539.13,435.3c0-4.41,0.51-10.01,1.53-16.65c1.98-13.01,2.08-14.94,2.08-17c0-15.12-8.03-23.03-12.81-26.39
	c-5.86-4.12-13.06-6.21-21.41-6.21c-1.35,0-3.03,0.07-5.59,0.24c-3.52,0.23-6.9,1.23-9.94,2.88c-4.9-1.67-10.53-2.46-17.27-2.46
	c-4.27,0-8.39,1.13-12,3.2c-4.62-2.22-9.68-3.08-15-3.39c-21.77-1.28-24.11-43-24.11-56.23c0-8.62,1.27-27.56,7.29-68.83
	c6.89-47.22,7.82-58.8,7.82-63.9c0-6.78-0.15-11.21-0.48-14.36c-0.55-5.06-2.08-10.22-4.57-15.36c-3.5-7.22-8.95-12.99-15.79-16.73
	c-6.42-3.61-14.16-6.04-23.8-7.44c-19.12-31.75-50.33-55.39-87.26-64.52c1.54-4.22,2.65-8.73,3.29-13.52l4.65-34.82l-34.51,6.57
	c-17.59,3.35-36.11,5.05-55.04,5.05c-19.41,0-37.4-1.08-53.47-3.21l-21.69-2.88l-6.02,21.03c-1.13,3.94-1.91,9.23-2.71,18.25
	l-0.1,1.12v1.12c0,9.12,1.06,22.33,10.2,31.8c1.95,2.03,4.07,3.69,6.3,5.04c-0.53,5.87-1.2,12.08-2,18.62
	c-10.4,8.14-16.27,20.61-16.33,35.69c-5.3,14.86-8.2,30.87-8.2,47.55c0,41,28.05,69.91,45.3,103.78c3.72,7.3,7.69,25.26,3.91,32.52
	c-8.1,15.58-61.92,33.19-61.92,33.19c-0.07,0-0.14,0-0.21,0c-1.09-8.25-5.12-15.73-11.63-21.4c-6.87-5.98-15.46-9.13-24.84-9.13
	c-7.88,0-19.7,2.25-31.37,12.95c-4.94,4.48-9.05,10.27-12.56,17.72c-0.97,2.05-1.86,4.2-2.7,6.46c-0.55,0.28-1.1,0.57-1.63,0.88
	c-9.68,5.58-15.24,15.73-15.24,27.86c0,1.47,0.09,3.17,0.29,5.33c0.54,5.87,3.19,11.26,7.35,15.25c-0.6,6.02-0.89,11.1-0.89,15.36
	c0,9.23,2.43,17.59,7.23,24.85c5.18,7.85,13.09,13.65,22.87,16.78c2.41,0.77,4.89,1.15,7.35,1.15c5.74,0,11.39-2.05,15.85-5.93
	c2.24-1.95,4.05-4.26,5.42-6.8c3.69,1.3,7.67,1.99,11.82,1.99c5.12,0,10.03-1.16,14.7-3.46c2.97,1.71,6.27,3.15,9.88,4.31
	c2.42,0.77,4.9,1.15,7.36,1.15c3.9,0,7.75-0.95,11.22-2.77c3.78,2.31,8.12,4.14,13.04,5.42c2.01,0.52,4.05,0.78,6.07,0.78
	c6.85,0,13.49-2.93,18.13-8.21c4.26,1.82,8.96,2.79,13.91,2.79c5.12,0,10.03-1.16,14.7-3.46c2.97,1.71,6.27,3.15,9.88,4.31
	c2.41,0.77,4.9,1.15,7.36,1.15c4.4,0,8.73-1.22,12.51-3.52c3.73,1.13,7.83,1.71,12.3,1.71c0.96,0,2.24-0.04,5.4-0.24
	c6.41-0.4,12.4-3.33,16.64-8.16c0.4-0.45,0.76-0.93,1.12-1.41c8.13,7.23,18,11.04,28.75,11.04c16.95,0,31.8-8.45,41.8-23.79
	c2.56-3.92,7.57-7.01,8.2-3.7c-4.59,10.27-6.45,17.25-6.45,23.6c0,8.83,3.44,17.18,9.69,23.53c5.44,5.54,13.06,9.15,23.27,11.04
	c1.46,0.27,2.93,0.4,4.39,0.4c6.29,0,12.39-2.46,16.95-6.95c5.62-5.54,8.17-13.48,6.84-21.25c-0.21-1.24-0.32-2.63-0.32-4.11
	c0-3.07,0.41-6.29,1.19-9.61c8.12,7.1,17.95,10.84,28.67,10.84c7.27,0,14.17-1.42,20.53-4.22c3.05-1.33,5.92-2.97,8.61-4.88
	c5.98,4.94,13.6,7.67,21.91,7.67c5.12,0,10.03-1.16,14.7-3.46c2.97,1.71,6.27,3.15,9.88,4.31c2.41,0.77,4.9,1.15,7.36,1.15
	c6.16,0,12.19-2.36,16.75-6.76c6.39-6.16,8.89-15.34,6.5-23.89C539.63,442.23,539.13,439.56,539.13,435.3z"/>
<g>
	<g>
		<path class="st1" d="M79.01,392.71c0.13,1.27,0.19,2.22,0.19,2.85c0,3.04-0.54,5.15-1.62,6.32c-1.08,1.17-2.96,1.76-5.66,1.76
			c-2.7,0-4.77-0.03-6.23-0.09c-2.47,18-3.71,30.9-3.71,38.69c0,3.74,0.08,6.45,0.24,8.13c0.16,1.68,0.58,4.55,1.28,8.6
			c-4.56-1.46-7.92-3.82-10.08-7.08c-2.16-3.26-3.23-7.11-3.23-11.55c0-6.65,0.95-16.48,2.85-29.47c0.44-3.29,0.73-5.48,0.86-6.56
			c-3.36,0.57-6.78,1.65-10.27,3.23c-0.13-1.39-0.19-2.44-0.19-3.14c0-3.42,1.05-5.73,3.14-6.94c2.09-1.2,5.1-1.84,9.03-1.9
			c1.27-6.21,2.96-11.57,5.09-16.07c2.12-4.5,4.45-7.89,6.99-10.17c4.82-4.44,9.86-6.65,15.12-6.65c3.55,0,6.54,1.06,8.98,3.18
			c2.44,2.13,3.66,4.72,3.66,7.8c0,3.08-1.05,5.75-3.14,8.03c-2.09,2.28-4.85,3.42-8.27,3.42c-1.33,0-2.63-0.22-3.9-0.66
			c1.01-0.76,2.01-2.09,3-3.99c0.98-1.9,1.47-3.69,1.47-5.37c0-1.68-0.37-3-1.09-3.95c-0.73-0.95-1.7-1.43-2.9-1.43
			c-2.6,0-5.25,2.17-7.94,6.51c-2.69,4.34-4.71,10.89-6.04,19.63C72.29,395.85,76.41,394.8,79.01,392.71z"/>
	</g>
	<g>
		<path class="st1" d="M116.28,393.37c1.9-0.13,3.23-0.19,3.99-0.19c3.3,0,5.8,0.6,7.51,1.81c1.71,1.2,2.57,3.42,2.57,6.65
			c0,1.01-0.6,5.47-1.81,13.36c-1.21,7.89-1.81,14.66-1.81,20.3c0,5.64,0.6,10.62,1.81,14.93c-4.75-1.52-8.05-3.68-9.89-6.47
			c-1.84-2.79-2.76-6.24-2.76-10.36c0-1.58,0.35-5.17,1.05-10.74c-1.96,7.23-4.96,13.3-8.98,18.21c-4.03,4.91-7.81,7.37-11.36,7.37
			c-7.29,0-10.93-5.26-10.93-15.78c0-3.48,0.52-8.35,1.57-14.59c1.05-6.24,1.57-10.98,1.57-14.21c0-3.23-0.44-6.5-1.33-9.79
			c5.26,0,9.08,0.68,11.46,2.04c2.38,1.36,3.57,4.07,3.57,8.13c0,2.15-0.67,6.43-2,12.83c-1.33,6.4-2,11.22-2,14.45
			c0,4.69,1.27,7.04,3.8,7.04c1.27,0,2.73-0.87,4.37-2.61c1.65-1.74,3.23-4.06,4.75-6.94c1.52-2.88,2.81-6.5,3.85-10.84
			c1.05-4.34,1.57-8.75,1.57-13.21C116.85,400.27,116.66,396.48,116.28,393.37z"/>
	</g>
	<g>
		<path class="st1" d="M162.77,403.55c-0.32,2.28-0.98,6.24-2,11.88c-2.15,11.98-3.23,20.85-3.23,26.62c0,5.77,0.44,9.63,1.33,11.6
			c-4.88-1.27-8.24-3.22-10.08-5.85c-1.84-2.63-2.76-6.35-2.76-11.17c0-4.25,0.66-10.06,2-17.44c1.33-7.38,2.19-12.37,2.57-14.97
			c-3.3,0.57-6.81,1.68-10.55,3.33c-0.13-1.39-0.19-2.44-0.19-3.14c0-3.36,1.01-5.66,3.04-6.89c2.03-1.24,4.94-1.88,8.75-1.95
			c0.44-4.75,0.67-8.18,0.67-10.27c0-2.09-0.02-3.83-0.05-5.23c-0.03-1.39-0.05-2.44-0.05-3.14c4.18,0.44,7.23,1.7,9.13,3.76
			c1.9,2.06,2.85,4.99,2.85,8.79c0,1.52-0.16,3.65-0.48,6.37c5.32-0.13,9.22-1.17,11.69-3.14c0.13,1.27,0.19,2.22,0.19,2.85
			c0,3.04-0.54,5.15-1.62,6.32c-1.08,1.17-2.89,1.76-5.42,1.76C166.03,403.64,164.1,403.61,162.77,403.55z"/>
	</g>
	<g>
		<path class="st1" d="M210.59,393.37c1.9-0.13,3.23-0.19,3.99-0.19c3.3,0,5.8,0.6,7.51,1.81c1.71,1.2,2.57,3.42,2.57,6.65
			c0,1.01-0.6,5.47-1.81,13.36c-1.21,7.89-1.81,14.66-1.81,20.3c0,5.64,0.6,10.62,1.81,14.93c-4.75-1.52-8.05-3.68-9.89-6.47
			c-1.84-2.79-2.76-6.24-2.76-10.36c0-1.58,0.35-5.17,1.05-10.74c-1.96,7.23-4.96,13.3-8.98,18.21c-4.03,4.91-7.81,7.37-11.36,7.37
			c-7.29,0-10.93-5.26-10.93-15.78c0-3.48,0.52-8.35,1.57-14.59c1.05-6.24,1.57-10.98,1.57-14.21c0-3.23-0.44-6.5-1.33-9.79
			c5.26,0,9.08,0.68,11.46,2.04c2.38,1.36,3.57,4.07,3.57,8.13c0,2.15-0.67,6.43-2,12.83c-1.33,6.4-2,11.22-2,14.45
			c0,4.69,1.27,7.04,3.8,7.04c1.27,0,2.73-0.87,4.37-2.61c1.65-1.74,3.23-4.06,4.75-6.94c1.52-2.88,2.81-6.5,3.85-10.84
			c1.05-4.34,1.57-8.75,1.57-13.21C211.16,400.27,210.97,396.48,210.59,393.37z"/>
	</g>
	<g>
		<path class="st1" d="M251.46,417.33c2.28-8.24,5.02-14.31,8.22-18.21c3.2-3.9,6.18-5.85,8.94-5.85s4.83,1.03,6.23,3.09
			c1.39,2.06,2.09,4.72,2.09,7.99c0,3.26-0.97,6.26-2.9,8.98c-1.93,2.73-4.58,4.09-7.94,4.09c-0.89,0-1.93-0.25-3.14-0.76
			c1.96-2.47,2.95-5.45,2.95-8.94c0-2.03-0.82-3.04-2.47-3.04c-1.2,0-2.5,0.84-3.9,2.52c-1.39,1.68-2.73,3.99-3.99,6.94
			c-1.27,2.95-2.33,6.72-3.18,11.31c-0.86,4.6-1.28,9.49-1.28,14.69c0,0.63,0.16,3.33,0.48,8.08c-2.03,0.13-3.33,0.19-3.9,0.19
			c-3.61,0-6.21-0.63-7.8-1.9c-1.58-1.27-2.38-3.36-2.38-6.27c0-1.27,0.67-6.15,2-14.64c1.33-8.49,2-15.26,2-20.3
			c0-5.04-0.54-9.68-1.62-13.93c4.63,1.46,7.86,3.53,9.7,6.23c1.84,2.69,2.76,5.83,2.76,9.41S252.03,414.04,251.46,417.33z"/>
	</g>
	<g>
		<path class="st1" d="M302.52,424.84c-3.04,0-6.02-0.35-8.94-1.05c-0.06,0.63-0.09,1.62-0.09,2.95c0,5.26,0.98,9.22,2.95,11.88
			c1.96,2.66,4.31,3.99,7.04,3.99c2.72,0,5.32-0.82,7.79-2.47c2.47-1.65,4.63-3.93,6.47-6.84c2.28,0.51,3.42,1.68,3.42,3.52
			c-5.58,8.56-12.77,12.83-21.58,12.83c-5.32,0-9.98-2.04-13.98-6.13c-3.99-4.09-5.99-9.78-5.99-17.07c0-5.45,1.05-10.63,3.14-15.54
			c2.09-4.91,5.42-9.06,9.98-12.45c4.56-3.39,9.62-5.09,15.16-5.09c5.55,0,9.62,1.27,12.22,3.8c2.6,2.54,3.9,5.86,3.9,9.98
			c0,5.96-2.08,10.39-6.23,13.31C313.62,423.38,308.54,424.84,302.52,424.84z M306.51,399.27c-3.23,0-5.96,2-8.18,5.99
			c-2.22,3.99-3.68,8.84-4.37,14.55h1.43c5.51,0,9.59-1.43,12.22-4.28c2.63-2.85,3.95-6.27,3.95-10.27c0-1.65-0.43-3.06-1.28-4.23
			C309.41,399.86,308.16,399.27,306.51,399.27z"/>
	</g>
	<g>
		<path class="st1" d="M407.57,399.93c0,2.22-0.95,5.21-2.85,8.98c-1.9,3.77-4.22,7.94-6.94,12.5c-2.73,4.56-5.45,9.43-8.18,14.59
			c-2.73,5.17-5.04,11-6.94,17.49c-1.9,6.5-2.85,12.85-2.85,19.06c0,2.85,0.22,5.58,0.67,8.18c-5.13-0.95-8.62-2.36-10.46-4.23
			c-1.84-1.87-2.76-4.07-2.76-6.61c0-3.49,2.53-10.36,7.6-20.63c-0.95-3.93-2.12-10.09-3.52-18.49c-1.39-8.4-2.8-15.7-4.23-21.91
			c-1.43-6.21-3.06-10.84-4.9-13.88c3.49-1.65,6.27-2.47,8.37-2.47c2.09,0,3.68,0.48,4.75,1.43c1.08,0.95,1.98,2.84,2.71,5.66
			c0.73,2.82,1.25,5.15,1.57,6.99c0.89,6.08,1.33,9.48,1.33,10.17c0,0.7,0.25,3.53,0.76,8.51c0.51,4.98,0.89,8.26,1.14,9.84
			c11.28-21.86,16.92-36.47,16.92-43.83C404.97,393.94,407.57,396.83,407.57,399.93z"/>
	</g>
	<g>
		<path class="st1" d="M434.75,392.04c0.7,0,1.35,0.21,1.95,0.62c0.6,0.41,0.9,0.84,0.9,1.28c-6.4,4.44-10.24,10.62-11.5,18.54
			c1.33-3.55,2.96-6.62,4.9-9.22c1.93-2.6,3.95-4.56,6.04-5.89c3.99-2.47,7.89-3.71,11.69-3.71c3.8,0,7.03,1.87,9.7,5.61
			c2.66,3.74,3.99,8.75,3.99,15.02c0,7.03-1.43,13.5-4.28,19.39c-3.17,6.65-7.67,11.25-13.5,13.78c-3.3,1.46-6.91,2.19-10.84,2.19
			c-5.52,0-10.32-2.14-14.4-6.42c-4.09-4.28-6.13-10.43-6.13-18.44c0-8.02,1.96-15.08,5.89-21.2
			C423.09,397.48,428.29,393.63,434.75,392.04z M442.84,400.6c-4.12,0-7.8,2.77-11.03,8.32c-3.23,5.55-4.85,11.07-4.85,16.59
			c0,11.54,2.98,17.3,8.94,17.3c4.25,0,7.7-2.77,10.36-8.32c2.66-5.54,3.99-11.77,3.99-18.68
			C450.25,405.67,447.78,400.6,442.84,400.6z"/>
	</g>
	<g>
		<path class="st1" d="M504.53,393.37c1.9-0.13,3.23-0.19,3.99-0.19c3.3,0,5.8,0.6,7.51,1.81c1.71,1.2,2.57,3.42,2.57,6.65
			c0,1.01-0.6,5.47-1.81,13.36c-1.21,7.89-1.81,14.66-1.81,20.3c0,5.64,0.6,10.62,1.81,14.93c-4.75-1.52-8.05-3.68-9.89-6.47
			c-1.84-2.79-2.76-6.24-2.76-10.36c0-1.58,0.35-5.17,1.05-10.74c-1.96,7.23-4.96,13.3-8.98,18.21c-4.03,4.91-7.81,7.37-11.36,7.37
			c-7.29,0-10.93-5.26-10.93-15.78c0-3.48,0.52-8.35,1.57-14.59c1.05-6.24,1.57-10.98,1.57-14.21c0-3.23-0.44-6.5-1.33-9.79
			c5.26,0,9.08,0.68,11.46,2.04c2.38,1.36,3.57,4.07,3.57,8.13c0,2.15-0.67,6.43-2,12.83c-1.33,6.4-2,11.22-2,14.45
			c0,4.69,1.27,7.04,3.8,7.04c1.27,0,2.73-0.87,4.37-2.61c1.65-1.74,3.23-4.06,4.75-6.94c1.52-2.88,2.81-6.5,3.85-10.84
			c1.05-4.34,1.57-8.75,1.57-13.21C505.1,400.27,504.91,396.48,504.53,393.37z"/>
	</g>
</g>
<path class="st1" d="M169.41,47.34c-0.61,2.14-1.22,6.64-1.83,13.51c0,7.33,1.03,12.07,3.09,14.2c2.06,2.14,6.99,3.21,14.77,3.21
	c-0.61,15.27-2.37,33.37-5.27,54.28c-9.62,2.6-14.43,9.16-14.43,19.7c0,1.68,0.15,4.2,0.46,7.56c2.29-1.07,5.88-2.37,10.77-3.89
	c-4.28,29.32-6.41,47.84-6.41,55.54c0,7.71,1.91,13.1,5.73,16.15c3.82,3.05,10.08,4.58,18.78,4.58c1.52,0,4.73-0.15,9.62-0.46
	c-0.92-5.34-1.37-14.66-1.37-27.94c0-13.29,1.22-30.61,3.66-52c3.36-0.15,8.17-0.23,14.43-0.23l21.99,0.23
	c10.38,0,15.58-6.95,15.58-20.84c0-1.53-0.15-3.82-0.46-6.87c-6.11,5.04-16.42,7.56-30.92,7.56c-3.21,0-9.24-0.15-18.1-0.46
	c4.27-33.59,6.49-51.38,6.64-53.37c17.56-0.61,31.07-1.83,40.54-3.66c17.41-3.21,27.18-12.83,29.32-28.86
	c-19.24,3.66-39.17,5.5-59.78,5.5C205.6,50.78,186.66,49.63,169.41,47.34z"/>
<path class="st1" d="M414.39,180.56c0-5.65-0.12-9.54-0.34-11.68c-0.23-2.14-0.96-4.47-2.18-6.99c-1.22-2.52-2.98-4.39-5.27-5.61
	c-5.35-3.05-13.82-4.89-25.42-5.5c0.61,7.94,0.92,16.87,0.92,26.8c0,9.93-1.22,25.5-3.67,46.73v0.46
	c-4.58,40.31-14.36,67.57-29.32,81.77c-7.33,6.87-14.89,10.31-22.67,10.31c-6.57,0-11.68-2.67-15.35-8.02
	c-3.67-5.34-5.5-14.39-5.5-27.14c0-12.75,1.52-29.55,4.58-50.39c3.05-20.84,4.58-36.04,4.58-45.58c0-9.54-2.4-16.95-7.21-22.22
	c-4.81-5.27-13.55-9.51-26.23-12.71c1.68,4.58,2.52,11.11,2.52,19.58c0,8.47-1.72,26.84-5.15,55.09
	c-3.44,28.25-5.15,47.8-5.15,58.64c0,19.09,3.21,33.02,9.62,41.8c6.41,8.78,16.03,13.17,28.86,13.17
	c24.13,0,43.14-13.74,57.03-41.23c-0.15,1.68-0.23,4.05-0.23,7.1c0,9.93,2.37,17.68,7.1,23.25c4.73,5.58,13.59,10.04,26.57,13.4
	c-2.14-5.04-3.21-14.47-3.21-28.29c0-13.82,2.52-37.98,7.56-72.49C411.87,206.29,414.39,186.21,414.39,180.56z"/>
</svg>
